<svg width="512" height="512" viewBox="0 0 512 512" fill="none" xmlns="http://www.w3.org/2000/svg">
<g clip-path="url(#clip0_32576_39905)">
<rect width="512" height="512" fill="black"/>
<path d="M148.251 415.464C127.272 415.464 110.216 398.694 110.216 378.072V134.042C110.216 113.42 127.272 96.6504 148.251 96.6504C169.231 96.6504 186.287 113.42 186.287 134.042V272.699C186.287 275.254 187.845 277.574 190.211 278.557C191 278.891 191.848 279.048 192.656 279.048C194.293 279.048 195.909 278.419 197.132 277.22L204.98 269.494C204.98 269.494 205.137 269.337 205.216 269.258C218.506 254.73 237.514 246.395 257.39 246.395C274.761 246.395 291.423 252.705 304.338 264.147C304.811 264.579 305.304 265.031 305.797 265.484C307.532 267.115 309.109 268.55 310.45 269.75C324.45 282.135 333.007 289.782 346.416 302.993C360.258 316.656 374.04 331.165 390.465 348.78C397.761 356.604 401.783 366.65 401.783 377.109C401.783 387.449 397.82 397.043 390.662 404.101C383.465 411.178 373.922 415.07 363.728 415.07C353.534 415.07 343.99 411.178 336.793 404.101L299.448 367.318C298.028 365.922 293.986 362.109 287.104 355.601L286.414 354.953C278.231 347.227 267.485 342.961 256.147 342.961C244.81 342.961 233.669 347.364 225.427 355.365C218.723 361.873 214.602 365.883 213.202 367.259L175.777 404.12C173.609 406.243 171.223 408.111 168.64 409.664C168.6 409.664 168.58 409.704 168.541 409.723C162.468 413.498 155.448 415.503 148.212 415.503L148.251 415.464ZM322.557 226.617C312.54 226.617 302.78 223.118 295.09 216.768C286.355 209.553 280.992 199.409 280.026 188.223C279.04 177.076 282.53 166.224 289.845 157.653L325.909 115.327C334.053 105.772 345.982 100.287 358.68 100.287C368.697 100.287 378.457 103.787 386.147 110.137C394.882 117.352 400.245 127.496 401.211 138.662C402.197 149.809 398.707 160.661 391.392 169.232L355.328 211.558C347.185 221.113 335.255 226.598 322.557 226.598V226.617Z" fill="url(#paint0_linear_32576_39905)"/>
</g>
<defs>
<linearGradient id="paint0_linear_32576_39905" x1="256.032" y1="96.6504" x2="256.032" y2="415.503" gradientUnits="userSpaceOnUse">
<stop stop-color="#F9DFBA"/>
<stop offset="0.5" stop-color="#DDA769"/>
<stop offset="1" stop-color="#AF8354"/>
</linearGradient>
<clipPath id="clip0_32576_39905">
<rect width="512" height="512" rx="96" fill="white"/>
</clipPath>
</defs>
</svg>
